<?xml version="1.0" standalone="no"?>
<!DOCTYPE svg PUBLIC "-//W3C//DTD SVG 20010904//EN"
 "http://www.w3.org/TR/2001/REC-SVG-20010904/DTD/svg10.dtd">
<svg version="1.0" xmlns="http://www.w3.org/2000/svg"
 width="500.000000pt" height="500.000000pt" viewBox="0 0 500.000000 500.000000"
 preserveAspectRatio="xMidYMid meet">
<metadata>
Created by potrace 1.10, written by Peter Selinger 2001-2011
</metadata>
<g transform="translate(0.000000,500.000000) scale(0.050000,-0.050000)"
fill="#033767" stroke="none">
<path d="M2139 9119 c-53 -53 -71 -104 -87 -249 -7 -66 -18 -156 -25 -200 -18
-125 10 -72 62 118 45 165 77 232 111 232 8 0 13 -207 10 -460 -3 -323 3 -460
18 -460 12 0 9 -9 -8 -20 -17 -11 -20 -20 -7 -20 26 0 90 -170 72 -188 -6 -7
-1 -12 12 -12 12 0 23 -9 23 -21 0 -11 41 -104 90 -206 50 -102 90 -196 90
-210 0 -14 8 -21 17 -15 19 12 82 -111 85 -164 1 -22 5 -25 12 -8 6 15 27 -7
50 -55 22 -45 48 -81 57 -81 9 0 13 -19 8 -43 -4 -23 -2 -37 5 -30 14 14 152
-204 152 -241 0 -13 8 -20 16 -15 8 5 29 -9 45 -33 32 -46 213 -75 213 -34 0
12 27 17 61 12 33 -5 66 -1 72 9 7 12 18 10 26 -3 8 -13 51 19 110 81 54 57
86 97 73 88 -18 -11 -18 -4 2 28 14 23 47 48 72 54 56 14 48 47 -21 86 -98 55
-250 -155 -186 -257 29 -47 -38 -41 -88 7 -75 72 -141 63 -180 -24 -39 -90
-29 -101 -251 270 -325 545 -455 812 -567 1166 -29 90 -29 343 -2 593 15 128
15 207 2 235 -11 22 -24 57 -31 76 -14 47 -63 44 -113 -6z"/>
<path d="M1723 9085 c-30 -58 -49 -507 -24 -573 34 -90 50 -45 51 144 0 168 2
174 48 181 37 5 45 -1 35 -25 -7 -19 -1 -32 13 -32 34 0 92 -109 107 -202 10
-64 47 -114 47 -63 0 48 -107 435 -141 513 -44 98 -102 123 -136 57z"/>
<path d="M1244 8954 c-37 -40 -44 -73 -48 -259 l-6 -214 74 -75 c94 -94 111
-78 45 40 -77 138 -90 307 -27 331 27 10 46 26 43 35 -3 10 11 18 30 18 19 0
33 -11 30 -25 -3 -14 5 -25 17 -25 13 0 53 -27 91 -60 131 -115 159 -78 57 74
-126 187 -230 241 -306 160z"/>
<path d="M980 8500 c-31 -31 -40 -67 -40 -155 0 -63 -6 -135 -12 -159 -9 -31
3 -59 40 -96 70 -70 96 -47 50 44 -39 76 -51 186 -21 186 14 0 66 87 72 120 1
6 9 22 19 37 11 18 7 34 -10 45 -41 25 -54 22 -98 -22z"/>
<path d="M760 8130 c-15 -18 -26 -96 -27 -195 l-3 -164 89 -45 c108 -53 126
-44 57 29 -93 100 -130 233 -70 256 37 14 43 149 7 149 -15 0 -39 -14 -53 -30z"/>
<path d="M5523 8084 c-106 -80 -242 -236 -243 -279 0 -38 75 -30 98 10 12 19
21 27 21 18 1 -9 21 8 46 37 210 250 322 228 194 -39 -41 -86 -36 -111 17 -78
119 74 104 407 -18 407 -8 0 -59 -34 -115 -76z"/>
<path d="M6019 8033 c-107 -64 -179 -126 -179 -152 0 -13 51 13 113 58 69 49
136 81 170 81 37 0 57 10 57 30 0 43 -76 35 -161 -17z"/>
<path d="M6118 7955 c-26 -49 -219 -281 -243 -292 -17 -7 -21 -63 -4 -63 5 0
56 37 113 81 56 45 129 95 162 112 41 21 52 37 38 51 -15 15 -12 35 9 68 17
25 25 56 18 67 -22 35 -68 23 -93 -24z"/>
<path d="M5030 7927 c-74 -39 -203 -173 -220 -228 -16 -49 -57 -41 -67 13 -36
194 -323 62 -323 -148 0 -80 -12 -80 -93 -1 -148 143 -387 -27 -387 -275 0
-84 -19 -86 -77 -8 -50 68 -120 79 -169 25 -41 -45 -67 -353 -29 -340 14 4 28
41 31 80 4 51 14 70 33 63 16 -6 31 9 39 40 11 43 25 51 107 56 91 6 97 10
157 110 34 58 68 99 75 92 7 -7 13 2 13 20 0 53 68 75 193 62 l117 -12 76 92
c42 51 85 88 95 81 11 -6 19 -2 19 10 0 11 16 21 35 21 30 -1 31 -4 5 -22 -24
-17 -21 -20 15 -12 25 6 45 2 45 -7 0 -10 15 -12 33 -5 23 9 29 5 19 -11 -8
-12 -5 -23 7 -23 11 0 21 10 21 21 0 12 9 16 20 9 11 -7 20 -3 20 9 0 12 23
31 50 41 28 10 50 33 50 50 0 16 17 30 38 30 20 0 48 14 62 30 27 33 110 42
90 10 -7 -11 1 -20 17 -20 16 0 34 11 40 25 5 14 11 5 11 -20 1 -25 11 -45 22
-45 59 0 -28 207 -90 215 -22 2 -67 -10 -100 -28z"/>
<path d="M586 7756 c-12 -14 -27 -108 -34 -207 -18 -247 7 -306 148 -355 135
-48 146 -32 45 71 -139 142 -202 349 -117 381 30 12 30 118 0 128 -12 4 -31
-4 -42 -18z"/>
<path d="M6160 7657 c-71 -68 -174 -165 -227 -215 -385 -365 -783 -1064 -862
-1515 -41 -234 -41 -387 -1 -387 24 0 30 29 30 139 0 77 8 160 17 185 10 25
29 82 42 126 130 421 552 1038 945 1383 198 173 288 299 186 260 -43 -17 -37
14 10 57 45 41 53 90 15 90 -14 -1 -83 -56 -155 -123z"/>
<path d="M508 7037 c7 -35 3 -74 -10 -89 -54 -66 144 -290 221 -249 23 13 81
30 127 39 l84 15 -99 58 c-121 72 -291 225 -291 262 0 15 -10 27 -22 27 -15 0
-19 -22 -10 -63z"/>
<path d="M667 6506 c7 -36 3 -70 -8 -76 -26 -17 -24 -97 3 -124 16 -16 49 -9
122 28 l100 50 -67 39 c-37 22 -88 64 -114 93 l-47 54 11 -64z"/>
<path d="M612 6204 c-35 -57 -29 -338 8 -400 44 -72 111 -90 90 -24 -9 29 4
57 47 100 64 64 63 67 -22 88 -80 19 -125 96 -98 171 19 55 0 105 -25 65z"/>
<path d="M5850 5866 c-208 -28 -690 -241 -690 -305 0 -9 22 -21 49 -26 28 -5
45 -2 39 8 -6 9 3 17 19 17 17 0 90 28 162 61 173 80 285 119 299 104 7 -6 12
-3 12 8 0 34 595 50 671 18 22 -10 56 -15 76 -12 23 2 32 -4 24 -17 -8 -13 3
-22 28 -22 22 0 41 -9 41 -19 0 -11 11 -15 25 -10 14 5 49 -12 78 -39 40 -38
58 -44 77 -25 16 14 21 15 14 1 -14 -24 231 -23 326 0 28 7 149 17 270 22 257
12 409 23 520 40 44 7 94 13 110 13 17 0 84 11 150 23 l120 23 -80 12 c-129
19 -736 0 -1050 -32 -308 -31 -374 -24 -477 49 -136 97 -516 147 -813 108z"/>
<path d="M712 5637 c-22 -112 -13 -155 50 -226 64 -73 132 -98 110 -40 -6 17
2 63 18 103 17 39 30 73 30 76 0 3 -27 16 -61 30 -33 14 -77 47 -97 72 l-37
47 -13 -62z"/>
<path d="M8204 5582 c-151 -79 -446 -193 -654 -252 -333 -94 -687 -222 -750
-272 -150 -116 -589 -339 -900 -457 -93 -36 -204 -79 -244 -96 -47 -19 -150
-110 -270 -239 -872 -930 -2446 -1677 -3274 -1554 -126 19 -134 18 -177 -28
-25 -26 -117 -108 -205 -181 -88 -73 -164 -138 -170 -145 -31 -38 -348 -258
-372 -258 -15 0 -28 -9 -28 -20 0 -25 23 -25 89 0 69 26 65 8 -8 -29 -88 -46
-181 -41 -181 9 0 22 -9 40 -20 40 -10 0 -25 22 -32 50 l-12 50 -56 -40 c-79
-56 -136 -51 -165 15 -14 30 -40 69 -57 87 -73 74 -59 358 16 329 26 -10 27
-7 6 19 -18 22 -19 37 -3 57 13 15 18 31 12 37 -5 6 4 22 21 36 16 14 30 38
30 54 0 15 9 23 20 16 11 -7 20 2 20 19 0 17 10 31 21 31 12 0 17 8 11 17 -14
22 66 115 92 108 10 -4 14 1 9 10 -6 10 -2 30 8 46 12 19 18 21 19 5 0 -14 13
-20 29 -13 17 6 28 18 25 27 -2 9 4 16 14 16 10 0 27 15 36 33 10 17 27 27 37
20 11 -6 19 -1 19 11 0 12 9 17 20 10 11 -7 20 -1 20 12 0 14 6 19 12 12 7 -7
26 1 42 17 16 16 37 24 48 18 10 -6 18 -4 18 5 0 9 19 28 42 43 35 21 40 21
27 -1 -9 -14 9 -3 39 24 31 28 60 47 65 44 5 -3 28 17 50 45 22 28 48 46 59
40 10 -6 18 -1 18 12 0 13 14 18 31 11 19 -7 26 -3 18 9 -7 11 23 68 67 125
161 212 84 232 -109 28 -157 -166 -200 -199 -407 -305 -278 -143 -458 -290
-459 -374 -1 -20 -29 -60 -63 -91 l-62 -55 -8 -283 c-6 -222 -1 -294 22 -339
16 -31 30 -69 30 -83 0 -14 14 -31 31 -37 17 -7 44 -38 60 -69 35 -67 95 -76
168 -24 38 26 50 28 57 7 20 -60 87 -105 138 -92 106 27 480 304 721 534 l109
104 203 -5 c487 -11 1052 133 1653 422 615 295 1244 748 1544 1112 119 143
248 246 366 291 44 16 143 54 220 83 221 84 605 278 786 396 166 109 263 146
930 353 174 54 352 125 709 282 127 56 125 86 -7 99 l-98 10 107 40 c125 47
141 78 43 84 -48 3 -116 -20 -216 -72z m-515 -280 c-10 -11 -55 -24 -99 -30
l-80 -11 80 28 c98 34 125 38 99 13z m-4409 -2458 c0 -17 -239 -92 -252 -79
-7 7 68 36 247 93 3 1 5 -5 5 -14z m-587 -158 c-25 -24 -444 -60 -535 -45 -73
12 -58 15 92 18 99 2 221 11 270 20 119 21 190 24 173 7z m-1763 -606 c-56
-24 -110 -24 -110 0 0 11 34 19 75 19 60 -2 67 -5 35 -19z"/>
<path d="M873 5256 c-34 -128 25 -270 116 -279 17 -2 42 -4 56 -5 15 -1 30 34
37 88 6 50 15 103 20 119 6 20 -12 29 -58 32 -37 3 -87 24 -113 48 l-46 43
-12 -46z"/>
<path d="M1071 4849 c-20 -134 -4 -162 111 -191 128 -33 142 -52 115 -149 -23
-85 38 -169 122 -169 82 0 96 -19 86 -109 -11 -98 6 -115 141 -139 62 -12 74
-21 64 -51 -17 -55 28 -135 92 -162 83 -34 208 24 188 88 -8 24 -18 68 -24 98
-11 57 -42 71 -79 34 -55 -55 -175 49 -175 153 0 63 -5 68 -62 68 -108 0 -157
51 -143 152 12 83 9 88 -42 99 -147 30 -188 101 -138 243 13 39 7 45 -61 58
-42 7 -100 25 -129 40 -52 27 -53 26 -66 -63z"/>
</g>
</svg>
