<?xml version="1.0" standalone="no"?>
<!DOCTYPE svg PUBLIC "-//W3C//DTD SVG 20010904//EN"
 "http://www.w3.org/TR/2001/REC-SVG-20010904/DTD/svg10.dtd">
<svg version="1.0" xmlns="http://www.w3.org/2000/svg"
 width="300.000000pt" height="300.000000pt" viewBox="0 0 300.000000 300.000000"
 preserveAspectRatio="xMidYMid meet">
<metadata>
Created by potrace 1.10, written by Peter Selinger 2001-2011
</metadata>
<g transform="translate(0.000000,300.000000) scale(0.100000,-0.100000)"
fill="#00386b" stroke="none">
<path d="M860 2350 c-6 -10 -13 -40 -17 -65 -3 -25 -9 -48 -13 -50 -4 -2 -12
20 -19 50 -23 104 -66 97 -57 -10 5 -59 5 -60 -12 -35 -32 48 -81 92 -99 88
-24 -4 -29 -65 -9 -111 l14 -35 -33 19 c-18 11 -40 17 -49 13 -19 -7 -22 -55
-5 -86 10 -18 8 -19 -13 -13 -36 11 -39 11 -51 -7 -8 -12 -7 -24 3 -45 8 -15
16 -31 18 -35 2 -4 -12 -4 -31 -1 -29 4 -36 2 -41 -14 -8 -25 0 -49 31 -90
l24 -33 -35 0 c-59 0 -40 -47 35 -85 32 -17 30 -30 -6 -37 -29 -5 -30 -34 -1
-59 l26 -22 -30 -19 c-17 -10 -33 -25 -37 -33 -6 -18 23 -55 45 -55 13 0 13
-3 -1 -18 -24 -26 -21 -38 11 -62 22 -16 28 -28 24 -46 -5 -29 13 -54 39 -54
15 0 18 -7 16 -37 -2 -33 1 -37 31 -45 30 -8 33 -12 28 -34 -6 -22 -2 -27 23
-37 21 -8 31 -19 33 -37 2 -17 10 -26 26 -28 12 -2 22 -10 22 -17 0 -18 39
-45 55 -39 7 3 15 -5 18 -17 9 -32 -102 -132 -205 -185 -86 -45 -118 -70 -118
-90 0 -7 -7 -17 -16 -22 -26 -14 -26 -97 0 -135 18 -26 28 -32 54 -29 18 1 32
-2 32 -8 0 -34 136 39 226 121 15 14 35 19 81 19 259 0 616 155 844 366 70 65
96 82 145 97 32 10 118 47 189 82 77 38 181 79 254 100 129 38 239 79 256 97
7 7 -62 9 -222 5 -216 -6 -235 -5 -275 13 -32 14 -66 20 -129 20 -89 0 -152
-16 -236 -58 -22 -12 -42 -19 -45 -17 -2 3 -1 36 3 75 14 124 132 314 260 416
62 49 83 74 62 74 -5 0 -27 -11 -50 -25 -24 -13 -43 -21 -43 -18 0 3 16 23 35
45 60 66 29 72 -58 11 -26 -18 -49 -33 -51 -33 -2 0 2 18 7 40 6 22 8 42 4 46
-11 12 -66 -17 -93 -49 -23 -27 -27 -29 -36 -14 -14 26 -51 20 -86 -14 -31
-31 -33 -31 -47 -13 -13 17 -16 18 -41 4 -22 -12 -36 -29 -51 -58 0 -2 -10 2
-21 9 -31 20 -68 4 -89 -39 -15 -31 -22 -37 -35 -29 -27 17 -48 1 -48 -37 0
-35 -1 -35 -26 -24 -22 11 -28 10 -40 -7 -8 -10 -14 -30 -14 -44 0 -19 -3 -22
-12 -13 -18 18 -55 15 -62 -5 -9 -23 -120 144 -185 277 l-46 95 2 107 c1 86
-2 108 -13 108 -7 0 -18 -9 -24 -20z"/>
</g>
</svg>
